<svg width="20" height="22" viewBox="0 0 19 22" fill="none" xmlns="http://www.w3.org/2000/svg">
<path d="M2.49999 7C1.999 1.5 2.49998 1.5 2.49998 1C3.99998 2 7.50002 4 8 5C8.5 5 11 5.66667 12 5C13 3.5 17 1.5 17 1.5C17 3.5 17 6 16.5 7.5C17.5 8.5 18.5 15.5 17 18C15.5 20.5 12.6623 21.5 9.50001 21.5C7.00001 21.5 2.50003 19 1.50001 16.5C0.553133 14.1328 2.49998 7 2.49998 7Z" fill="#E2ACE3"/>
<path d="M9.50002 15C10.5 15 9.50002 16 9.50002 16C9.50002 16 8.50002 15 9.50002 15Z" fill="#02ACA9"/>
<path d="M7.00001 17.5C7.00001 17.5 8.50002 17 9.50002 17M12.5 17.5C12.5 17.5 10.5 17 9.50002 17M9.50002 16V17M9.50002 16C9.50002 16 10.5 15 9.50002 15C8.50002 15 9.50002 16 9.50002 16ZM2.49998 1C2.49998 1.5 1.99997 5.5 2.49998 7C2.49998 7 0.553133 14.1328 1.50001 16.5C2.50003 19 7.00001 21.5 9.50001 21.5C12.6623 21.5 15.5 20.5 17 18C18.5 15.5 17.5 8.5 16.5 7.5C17 6 17 3.5 17 1.5C17 1.5 13 3.5 12 5C11 5.66667 8.5 5 8 5C7.50002 4 3.99998 2 2.49998 1ZM3.50001 11.5C3.33334 10.5 3.90001 9.1 5.50001 9.5C7.50001 10 7.00001 10.5 7.00001 11.5C7.00001 12.3 3.66668 12.5 3.50001 11.5ZM12 11C12 10 14 9 15 11C16 13 12 13.5 12 11Z" stroke="black" stroke-width="0.1"/>
</svg>
