<svg width="18" height="16" viewBox="0 0 18 16" fill="none" xmlns="http://www.w3.org/2000/svg">
<path d="M2.5 15.5L3 7L13.5 7.5L13 15.5H2.5Z" fill="#EC86B7" stroke="black" stroke-width="0.2"/>
<path d="M4.49999 11.5C4.89999 11.1 4.66666 10 4.49999 9.5H7L6.99999 11.5C5.99999 11.6667 4.09999 11.9 4.49999 11.5Z" fill="#FF7F56"/>
<path d="M9 12V9.5H11C11.1667 10.3333 11.4 11.9 11 11.5C10.6 11.1 9.5 11.6667 9 12Z" fill="#FF7F56"/>
<path d="M7.5 10C7.5 10.8 7.16667 14 7 15.5H9C8.6 15.5 8.5 11.8333 8.5 10C8.16667 9.66667 7.5 9.2 7.5 10Z" fill="#FF7F56"/>
<path fill-rule="evenodd" clip-rule="evenodd" d="M4.36127 9.4H7.10002L7.10001 11.5847L7.01645 11.5986C6.51505 11.6822 5.7858 11.7829 5.23031 11.8124C4.9558 11.8269 4.71157 11.8249 4.55875 11.7896C4.51963 11.7806 4.48184 11.7684 4.44935 11.751C4.41753 11.734 4.3825 11.7076 4.36195 11.666C4.31457 11.5703 4.37609 11.4825 4.4293 11.4293C4.50983 11.3488 4.56424 11.2268 4.59396 11.0704C4.62353 10.9148 4.62699 10.7336 4.61279 10.545C4.58439 10.1677 4.48658 9.77593 4.40514 9.53162L4.36127 9.4ZM4.63609 9.6C4.71053 9.85249 4.78702 10.195 4.81223 10.53C4.8272 10.7289 4.82441 10.929 4.79044 11.1077C4.75662 11.2857 4.6902 11.4512 4.57072 11.5707C4.56656 11.5749 4.56303 11.5786 4.56005 11.5819C4.57101 11.5861 4.58539 11.5905 4.60378 11.5948C4.72595 11.623 5.72451 10.5146 6 10.5C6.51479 10.4727 6.40682 11.4951 6.90001 11.4151L6.90002 9.6H4.63609ZM8.90002 9.4H11.082L11.0981 9.48039C11.1817 9.89853 11.2827 10.5036 11.3123 10.956C11.3268 11.1774 11.3257 11.3792 11.2878 11.5027C11.2705 11.5592 11.2319 11.6434 11.1409 11.6612C11.0968 11.6699 11.0558 11.6587 11.0224 11.6417C10.9895 11.625 10.9585 11.5999 10.9293 11.5707C10.8556 11.497 10.7428 11.4606 10.5903 11.4625C10.4381 11.4644 10.2588 11.5046 10.0701 11.5696C9.69313 11.6993 9.30093 11.9196 9.05549 12.0832L8.90002 12.1869V9.4ZM9.10002 9.6V11.8177C9.50179 11.5723 9.52046 10.506 10 10.5C10.1819 10.4977 10.9445 11.303 11.0707 11.4293C11.08 11.4385 11.0879 11.4455 11.0945 11.4508C11.0951 11.4488 11.0959 11.4465 11.0966 11.4441C11.1223 11.3603 11.1274 11.1935 11.1127 10.969C11.0858 10.5574 10.9972 10.009 10.9178 9.6H9.10002ZM11.0837 11.4743L11.0845 11.4732L11.0837 11.4743ZM7.67783 9.68855C7.64104 9.72307 7.60002 9.80818 7.60002 10C7.60002 10.7877 7.28159 13.8615 7.11171 15.4H8.78072C8.77728 15.392 8.77394 15.3838 8.77069 15.3756C8.7259 15.2622 8.68781 15.1039 8.65466 14.9158C8.58807 14.5379 8.5378 14.0179 8.50023 13.444C8.42618 12.3126 8.40079 10.9595 8.40004 10.042C8.32542 9.96993 8.23683 9.89383 8.14502 9.82825C8.03965 9.75298 7.93604 9.69593 7.84806 9.6713C7.75972 9.64656 7.70891 9.65938 7.67783 9.68855ZM9.00002 15.4C9.00946 15.4 9.01415 15.4033 9.01415 15.4033C9.01415 15.4033 9.01122 15.4015 9.00538 15.3944C8.99243 15.3789 8.9755 15.3497 8.9567 15.3021C8.91945 15.2078 8.8841 15.0654 8.85163 14.8811C8.78697 14.5142 8.73725 14.003 8.69981 13.431C8.625 12.2881 8.60002 10.9155 8.60002 10V9.95858L8.57073 9.92929C8.48422 9.84278 8.37589 9.74737 8.26127 9.6655C8.1479 9.58452 8.02233 9.5124 7.90198 9.47871C7.78199 9.44511 7.6453 9.44479 7.54096 9.54271C7.44234 9.63526 7.40002 9.79183 7.40002 10C7.40002 10.7929 7.0677 13.9854 6.90063 15.489L6.88829 15.6H9.00002V15.4Z" fill="black"/>
<path d="M8.93321 0.69162C7.5 3.5 2.9833 5.96362 0.5 7C7.45325 7.69092 14.6102 9.07194 17 8.5C11.5 5.5 11 3.5 8.93321 0.69162Z" fill="#FF7F56" stroke="black" stroke-width="0.2"/>
</svg>
