<svg width="120" height="160" viewBox="0 0 27 38" fill="none" xmlns="http://www.w3.org/2000/svg">
<path d="M7.3173 8.62855C7.16867 9.19193 7.39987 9.54135 7.8279 9.88586C7.8279 9.88586 9.65472 10.0835 10 10.5C11.1874 11.1432 11.4162 9.67092 11.3418 8.69444C11.2312 7.24306 9.72643 6.40951 8.45656 7.13515C7.88974 7.45905 7.48391 7.99696 7.3173 8.62855Z" fill="#FF7F56"/>
<path d="M15.9858 10.8382C16.3876 11.0673 17.5274 10.9479 17.9709 10.8382C19 10.5837 18.942 10.4175 19.2251 9.70716C19.5411 8.9141 19.5196 8.20608 19 7.50001C18.5567 6.89758 17.9847 6.81712 17.298 6.76429C16.4138 6.69628 15.1211 7.19542 14.7779 8.08199C14.5234 8.73936 14.537 9.64203 15.0579 10.1629C15.3288 10.4338 15.654 10.6491 15.9858 10.8382Z" fill="#FF7F56"/>
<path d="M3.62518 35.1702C3.31122 34.4526 4.46056 23.1289 4.19618 22.3968C4.19618 21.9729 4.07158 21.5214 4.19619 21.112C4.25025 20.9344 4.29049 20.6638 4.44051 20.5437C4.78648 20.267 5.08013 20.3955 5.51389 20.3955C5.94965 20.3955 6.37596 20.4943 6.80963 20.4943H8.24263C8.83141 20.4943 9.41531 20.3587 9.99957 20.2857C10.7471 20.1922 11.4846 20.1082 12.2342 20.0386C14.2688 19.8498 16.3223 19.6069 18.2901 20.2967C18.965 20.5332 19.6855 20.7946 20.1294 21.3865C20.5009 21.8819 20.4235 22.5348 20.5 23.116C20.3175 24.0783 20.2094 35.913 19.6819 36.757C19.2727 37.4117 18.511 37.5855 17.7768 37.6409C16.6537 37.7257 15.5378 37.6749 14.4139 37.6437C13.066 37.6062 11.7261 37.7224 10.3784 37.6519C9.22457 37.5916 8.07647 37.5074 6.92493 37.4048C6.1544 37.3362 5.25721 37.195 4.71229 36.5758C4.35045 36.1646 3.84355 35.6694 3.62518 35.1702Z" fill="#FF7F56"/>
<path d="M7.8279 9.88586L7.73385 10.0027L7.76808 10.0303L7.81177 10.035L7.8279 9.88586ZM7.3173 8.62855L7.46233 8.66681L7.46233 8.66681L7.3173 8.62855ZM8.45656 7.13515L8.38214 7.00492L8.38214 7.00492L8.45656 7.13515ZM11.3418 8.69444L11.4913 8.68304L11.4913 8.68304L11.3418 8.69444ZM10 10.5L9.88452 10.5957L9.90304 10.6181L9.92856 10.6319L10 10.5ZM17.9709 10.8382L18.0069 10.9838L18.0069 10.9838L17.9709 10.8382ZM15.0579 10.1629L14.9518 10.2689L14.9518 10.2689L15.0579 10.1629ZM14.7779 8.08199L14.9177 8.13614L14.9177 8.13614L14.7779 8.08199ZM17.298 6.76429L17.2865 6.91385L17.298 6.76429ZM19 7.50001L19.1208 7.41111L19.1208 7.41111L19 7.50001ZM19.2251 9.70716L19.3644 9.76269L19.3644 9.76269L19.2251 9.70716ZM12.2861 11.5934L12.1644 11.5057L12.1644 11.5057L12.2861 11.5934ZM11.1112 12.8891L11.2242 12.9878L11.1112 12.8891ZM10.521 13.5452L10.4045 13.4506L10.4045 13.4506L10.521 13.5452ZM10.1751 14.0586L10.2912 14.1536L10.2912 14.1536L10.1751 14.0586ZM10.7049 13.9845L10.656 13.8427L10.656 13.8427L10.7049 13.9845ZM12.4399 13.4217L12.4826 13.5655L12.4826 13.5655L12.4399 13.4217ZM9.26365 16.823L9.32956 16.6883L9.26365 16.823ZM12.8187 17.0399L12.857 17.1849L12.857 17.1849L12.8187 17.0399ZM15.5721 16.1147L15.6304 16.253L15.6304 16.253L15.5721 16.1147ZM3.62518 35.1702L3.48776 35.2303L3.48776 35.2303L3.62518 35.1702ZM4.71229 36.5758L4.82489 36.4767L4.82489 36.4767L4.71229 36.5758ZM6.92493 37.4048L6.93824 37.2554L6.93824 37.2554L6.92493 37.4048ZM10.3784 37.6519L10.3706 37.8017L10.3706 37.8017L10.3784 37.6519ZM14.4139 37.6437L14.418 37.4937L14.418 37.4937L14.4139 37.6437ZM17.7768 37.6409L17.788 37.7905L17.788 37.7905L17.7768 37.6409ZM19.6819 36.757L19.5547 36.6775L19.5547 36.6775L19.6819 36.757ZM20.1294 21.3865L20.0094 21.4765L20.0094 21.4765L20.1294 21.3865ZM18.2901 20.2967L18.3397 20.1551L18.3397 20.1551L18.2901 20.2967ZM12.2342 20.0386L12.248 20.188L12.248 20.188L12.2342 20.0386ZM9.99957 20.2857L10.0182 20.4345L10.0182 20.4345L9.99957 20.2857ZM4.44051 20.5437L4.34681 20.4266L4.34681 20.4266L4.44051 20.5437ZM4.19619 21.112L4.05269 21.0683L4.05269 21.0683L4.19619 21.112ZM23.1791 9.24897L23.2944 9.15294L23.2944 9.15294L23.1791 9.24897ZM24.3541 10.6024L24.4725 10.5103L24.4725 10.5103L24.3541 10.6024ZM24.851 11.3189L24.9447 11.2017L24.9447 11.2017L24.851 11.3189ZM24.9251 11.0334L25.075 11.0387L25.075 11.0387L24.9251 11.0334ZM25.1118 9.0019L24.9621 8.99239L24.9621 8.99239L25.1118 9.0019ZM25.5071 5.19154L25.3611 5.15719L25.3611 5.15719L25.5071 5.19154ZM26.1495 2.68242L26.2918 2.72985L26.2918 2.72985L26.1495 2.68242ZM26.715 0.892539L26.5782 0.830985L26.5782 0.830985L26.715 0.892539ZM26.5557 0.546642L26.4902 0.681569L26.4902 0.681569L26.5557 0.546642ZM24.8537 0.200746L24.8522 0.350738L24.8522 0.350738L24.8537 0.200746ZM16.8295 0.321535L16.8432 0.470903L16.8432 0.470903L16.8295 0.321535ZM4.24815 1.16157L4.23017 1.01265L4.24815 1.16157ZM1.4645 1.23569L1.47282 1.08592L1.47282 1.08592L1.4645 1.23569ZM0.811142 1.21922L0.948214 1.28014L0.948214 1.28014L0.811142 1.21922ZM0.6629 2.94596L0.513038 2.93954L0.513038 2.93954L0.6629 2.94596ZM0.306023 6.1304L0.15712 6.11229L0.306023 6.1304ZM0.6629 7.4536L0.62833 7.59956L0.62833 7.59956L0.6629 7.4536ZM2.41435 7.71165L2.38432 7.85861L2.38432 7.85861L2.41435 7.71165ZM3.9901 8.15637L3.9453 8.29952L4.0435 8.0162L3.9901 8.15637ZM4.41835 8.35403L4.27 8.37624L4.2784 8.43227L4.32173 8.46876L4.41835 8.35403ZM7.92196 9.76901C7.71494 9.60239 7.57101 9.44636 7.49254 9.2764C7.41648 9.11166 7.39558 8.91984 7.46233 8.66681L7.17226 8.59029C7.09038 8.90064 7.11078 9.16522 7.22017 9.40216C7.32715 9.63388 7.51284 9.82482 7.73385 10.0027L7.92196 9.76901ZM7.46233 8.66681C7.61894 8.07316 7.99992 7.56885 8.53098 7.26539L8.38214 7.00492C7.77956 7.34925 7.34888 7.92077 7.17226 8.59029L7.46233 8.66681ZM8.53098 7.26539C9.70156 6.59649 11.0897 7.36009 11.1922 8.70583L11.4913 8.68304C11.3727 7.12603 9.7513 6.22254 8.38214 7.00492L8.53098 7.26539ZM11.1922 8.70583C11.2287 9.18536 11.188 9.76572 11.0088 10.1398C10.9205 10.3241 10.8081 10.4391 10.6733 10.4843C10.5395 10.5292 10.3471 10.5174 10.0714 10.3681L9.92856 10.6319C10.2466 10.8041 10.5281 10.8495 10.7688 10.7687C11.0086 10.6883 11.1713 10.4948 11.2793 10.2694C11.4928 9.824 11.5292 9.17999 11.4913 8.68304L11.1922 8.70583ZM10.1155 10.4043C10.0551 10.3314 9.97025 10.2719 9.87935 10.2223C9.78691 10.1719 9.67914 10.127 9.56459 10.0868C9.33553 10.0064 9.06729 9.9411 8.81431 9.88974C8.56058 9.83823 8.31833 9.80004 8.13979 9.77473C8.05042 9.76207 7.97678 9.7526 7.92536 9.74628C7.89965 9.74312 7.87947 9.74075 7.86565 9.73916C7.85874 9.73837 7.85342 9.73777 7.84978 9.73736C7.84796 9.73716 7.84657 9.737 7.84561 9.7369C7.84513 9.73685 7.84475 9.73681 7.84449 9.73678C7.84436 9.73676 7.84426 9.73675 7.84418 9.73674C7.84415 9.73674 7.84411 9.73674 7.84409 9.73673C7.84406 9.73673 7.84404 9.73673 7.8279 9.88586C7.81177 10.035 7.81176 10.035 7.81176 10.035C7.81177 10.035 7.81178 10.035 7.81179 10.035C7.81183 10.035 7.81189 10.035 7.81198 10.035C7.81216 10.035 7.81245 10.0351 7.81285 10.0351C7.81365 10.0352 7.81488 10.0353 7.81653 10.0355C7.81983 10.0359 7.8248 10.0364 7.83136 10.0372C7.84447 10.0387 7.86388 10.041 7.88879 10.044C7.93862 10.0502 8.0104 10.0594 8.09769 10.0718C8.27247 10.0965 8.5085 10.1338 8.75463 10.1837C9.00152 10.2339 9.25472 10.296 9.4653 10.3699C9.57057 10.4068 9.66217 10.4456 9.73572 10.4857C9.81081 10.5267 9.85858 10.5644 9.88452 10.5957L10.1155 10.4043ZM17.9349 10.6926C17.7249 10.7445 17.3395 10.8007 16.957 10.8153C16.7663 10.8226 16.5803 10.8194 16.42 10.8012C16.256 10.7826 16.1338 10.7499 16.06 10.7079L15.9115 10.9685C16.0386 11.041 16.2095 11.0793 16.3862 11.0993C16.5664 11.1197 16.7685 11.1227 16.9684 11.1151C17.3672 11.0999 17.7734 11.0415 18.0069 10.9838L17.9349 10.6926ZM16.06 10.7079C15.7332 10.5216 15.4212 10.314 15.1639 10.0568L14.9518 10.2689C15.2364 10.5536 15.5748 10.7766 15.9115 10.9685L16.06 10.7079ZM15.1639 10.0568C14.9343 9.82719 14.8107 9.50732 14.7764 9.15893C14.7421 8.81053 14.7986 8.44406 14.9177 8.13614L14.638 8.02784C14.5027 8.3773 14.4387 8.79084 14.4778 9.18832C14.517 9.58581 14.6606 9.9777 14.9518 10.2689L15.1639 10.0568ZM14.9177 8.13614C15.0703 7.74203 15.4418 7.4187 15.8996 7.20059C16.3558 6.98321 16.8739 6.88212 17.2865 6.91385L17.3095 6.61473C16.8379 6.57846 16.2676 6.69293 15.7705 6.92976C15.2751 7.16585 14.8286 7.53538 14.638 8.02784L14.9177 8.13614ZM17.2865 6.91385C17.9713 6.96653 18.4791 7.04517 18.8792 7.58891L19.1208 7.41111C18.6343 6.75 17.9981 6.6677 17.3095 6.61473L17.2865 6.91385ZM18.8792 7.58891C19.1246 7.92239 19.2482 8.24998 19.2764 8.58361C19.3048 8.91866 19.2378 9.27017 19.0858 9.65163L19.3644 9.76269C19.5285 9.35109 19.6087 8.95206 19.5754 8.55832C19.5419 8.16315 19.395 7.7837 19.1208 7.41111L18.8792 7.58891ZM19.0858 9.65163C19.0102 9.84134 18.9673 9.96862 18.9163 10.0894C18.8686 10.2022 18.8252 10.2793 18.7675 10.3419C18.6518 10.4674 18.4512 10.5649 17.9349 10.6926L18.0069 10.9838C18.5197 10.857 18.8047 10.7441 18.988 10.5453C19.0799 10.4457 19.1394 10.3322 19.1926 10.2061C19.2425 10.088 19.2985 9.92813 19.3644 9.76269L19.0858 9.65163ZM12.8726 10.0407C12.7053 10.6029 12.5066 11.0307 12.1644 11.5057L12.4078 11.6811C12.7719 11.1757 12.9844 10.7167 13.1601 10.1263L12.8726 10.0407ZM12.1644 11.5057C12.0008 11.7328 11.8088 11.941 11.6064 12.1501C11.4062 12.3569 11.1925 12.5679 10.9982 12.7905L11.2242 12.9878C11.4118 12.7729 11.6153 12.5723 11.822 12.3588C12.0264 12.1476 12.2309 11.9266 12.4078 11.6811L12.1644 11.5057ZM10.9982 12.7905C10.9013 12.9014 10.8034 13.0048 10.703 13.1127C10.6034 13.2198 10.5024 13.3302 10.4045 13.4506L10.6374 13.6398C10.7285 13.5277 10.8237 13.4233 10.9226 13.3171C11.0206 13.2118 11.1233 13.1033 11.2242 12.9878L10.9982 12.7905ZM10.4045 13.4506C10.3318 13.5402 10.273 13.6373 10.2202 13.7239C10.1656 13.8135 10.117 13.8927 10.059 13.9636L10.2912 14.1536C10.3645 14.064 10.4235 13.9668 10.4764 13.88C10.5311 13.7903 10.5796 13.7109 10.6374 13.6398L10.4045 13.4506ZM10.059 13.9636C10.0447 13.9811 10.0295 14.0024 10.0181 14.0268C10.0074 14.0498 9.9934 14.0899 10.0019 14.1382C10.0118 14.1941 10.0466 14.2333 10.0837 14.2551C10.1156 14.2739 10.1475 14.2793 10.1672 14.2813C10.2073 14.2853 10.2498 14.2798 10.2834 14.2738C10.3199 14.2672 10.3594 14.2575 10.3981 14.2468C10.5485 14.2049 10.7339 14.1331 10.7538 14.1263L10.656 13.8427C10.6163 13.8564 10.4571 13.919 10.3177 13.9577C10.2839 13.9671 10.2543 13.9742 10.2305 13.9785C10.2039 13.9832 10.1948 13.9825 10.1973 13.9828C10.1983 13.9829 10.2149 13.9843 10.2357 13.9965C10.2617 14.0117 10.2896 14.0419 10.2974 14.0861C10.3038 14.1226 10.2925 14.1481 10.2901 14.1533C10.287 14.16 10.2855 14.1604 10.2912 14.1536L10.059 13.9636ZM10.7538 14.1263C11.3285 13.9281 11.9017 13.7382 12.4826 13.5655L12.3971 13.2779C11.8105 13.4523 11.2328 13.6437 10.656 13.8427L10.7538 14.1263ZM12.4826 13.5655C12.5022 13.5597 12.523 13.5488 12.5301 13.5451C12.5429 13.5386 12.5586 13.5301 12.5763 13.5205C12.6117 13.5011 12.6585 13.4747 12.7119 13.4446C12.8193 13.384 12.9548 13.3069 13.0868 13.2342C13.2196 13.161 13.3447 13.0944 13.4316 13.0539C13.478 13.0324 13.5027 13.0234 13.5101 13.0216C13.5111 13.0214 13.5063 13.0227 13.4979 13.0231C13.4928 13.0234 13.4662 13.025 13.4348 13.0102C13.3914 12.9897 13.3577 12.9463 13.3531 12.8926C13.3498 12.854 13.3633 12.8271 13.3658 12.822L13.6342 12.9562C13.6406 12.9434 13.6557 12.9103 13.652 12.8669C13.647 12.8084 13.6108 12.7616 13.563 12.739C13.5272 12.722 13.4942 12.7229 13.4809 12.7236C13.4643 12.7246 13.4496 12.7276 13.4389 12.7302C13.3996 12.7398 13.3508 12.7606 13.3051 12.7819C13.2079 12.8271 13.0748 12.8982 12.9419 12.9714C12.8082 13.0452 12.6707 13.1233 12.5644 13.1834C12.5109 13.2136 12.4657 13.239 12.4322 13.2573C12.4154 13.2665 12.4025 13.2734 12.3935 13.278C12.3788 13.2855 12.3847 13.2816 12.3971 13.2779L12.4826 13.5655ZM7.24445 14.7855C7.64866 15.7682 8.21087 16.475 9.19774 16.9578L9.32956 16.6883C8.42138 16.244 7.90414 15.6007 7.5219 14.6714L7.24445 14.7855ZM9.19774 16.9578C10.3596 17.526 11.6508 17.5031 12.857 17.1849L12.7804 16.8948C11.6186 17.2014 10.4064 17.215 9.32956 16.6883L9.19774 16.9578ZM12.857 17.1849C13.7907 16.9386 14.737 16.6291 15.6304 16.253L15.5139 15.9765C14.6357 16.3463 13.7031 16.6514 12.7804 16.8948L12.857 17.1849ZM15.6304 16.253C15.6985 16.2243 15.8021 16.1852 15.8904 16.1319C15.981 16.0773 16.0796 15.9945 16.1235 15.8629L15.8389 15.7681C15.8273 15.8029 15.7975 15.8376 15.7355 15.875C15.6713 15.9137 15.5981 15.9411 15.5139 15.9765L15.6304 16.253ZM4.0551 22.4477C4.06295 22.4694 4.07378 22.5349 4.08008 22.6605C4.08603 22.7792 4.08743 22.9351 4.08469 23.1242C4.07923 23.5022 4.05738 24.0049 4.02458 24.5922C3.959 25.7665 3.85003 27.2716 3.74247 28.7782C3.63497 30.2839 3.52888 31.7912 3.46932 32.967C3.43955 33.5547 3.42129 34.0616 3.42042 34.445C3.41998 34.6365 3.42387 34.7995 3.43315 34.9274C3.44187 35.0475 3.4564 35.1587 3.48776 35.2303L3.76261 35.1101C3.75472 35.0921 3.74144 35.0307 3.73237 34.9057C3.72386 34.7885 3.71999 34.6339 3.72042 34.4457C3.72127 34.0696 3.73924 33.5684 3.76893 32.9822C3.82831 31.81 3.93416 30.306 4.04171 28.7996C4.14919 27.2941 4.25837 25.7861 4.32412 24.6089C4.35698 24.0205 4.3791 23.5128 4.38466 23.1285C4.38744 22.9366 4.38612 22.7734 4.3797 22.6455C4.37363 22.5244 4.36247 22.4156 4.33727 22.3458L4.0551 22.4477ZM3.48776 35.2303C3.60565 35.4998 3.79802 35.7615 4 36.0024C4.19941 36.2402 4.42595 36.4775 4.59968 36.6749L4.82489 36.4767C4.63679 36.2629 4.42896 36.047 4.22987 35.8096C4.03335 35.5753 3.86309 35.3398 3.76261 35.1101L3.48776 35.2303ZM4.59968 36.6749C5.18869 37.3442 6.14577 37.486 6.91162 37.5542L6.93824 37.2554C6.16303 37.1863 5.32574 37.0458 4.82489 36.4767L4.59968 36.6749ZM6.91162 37.5542C8.06472 37.657 9.21466 37.7413 10.3706 37.8017L10.3862 37.5021C9.23448 37.4419 8.08823 37.3579 6.93824 37.2554L6.91162 37.5542ZM10.3706 37.8017C11.0507 37.8373 11.7277 37.8257 12.3995 37.8101C13.0731 37.7945 13.7405 37.775 14.4097 37.7936L14.418 37.4937C13.7394 37.4749 13.0629 37.4947 12.3926 37.5102C11.7207 37.5258 11.0538 37.537 10.3862 37.5021L10.3706 37.8017ZM14.4097 37.7936C15.5296 37.8247 16.6553 37.876 17.788 37.7905L17.7655 37.4913C16.6521 37.5754 15.546 37.5251 14.418 37.4937L14.4097 37.7936ZM17.788 37.7905C18.5268 37.7347 19.3582 37.5579 19.8091 36.8365L19.5547 36.6775C19.1872 37.2655 18.4952 37.4363 17.7655 37.4913L17.788 37.7905ZM19.8091 36.8365C19.857 36.7599 19.8925 36.6416 19.9224 36.508C19.9536 36.3686 19.9826 36.1929 20.0097 35.9877C20.0641 35.5769 20.1126 35.038 20.1562 34.4153C20.2436 33.1694 20.3123 31.5787 20.3702 29.9863C20.4281 28.3949 20.4753 26.7958 20.5193 25.5399C20.5413 24.911 20.5625 24.3675 20.5839 23.9515C20.6055 23.5302 20.6269 23.2519 20.6474 23.1439L20.3526 23.088C20.3275 23.2207 20.3055 23.5227 20.2843 23.9361C20.2628 24.3547 20.2415 24.9003 20.2195 25.5294C20.1753 26.7895 20.1283 28.3823 20.0704 29.9754C20.0125 31.5674 19.944 33.1538 19.857 34.3943C19.8135 35.0149 19.7655 35.5466 19.7123 35.9483C19.6857 36.1493 19.6581 36.3153 19.6296 36.4425C19.5999 36.5755 19.5728 36.6485 19.5547 36.6775L19.8091 36.8365ZM20.6487 23.0964C20.6304 22.9571 20.6211 22.8124 20.6118 22.661C20.6026 22.5114 20.5932 22.355 20.5742 22.2007C20.5362 21.8917 20.4579 21.5745 20.2494 21.2965L20.0094 21.4765C20.1724 21.6939 20.2412 21.9508 20.2765 22.2374C20.2941 22.3809 20.303 22.5277 20.3124 22.6795C20.3216 22.8294 20.3314 22.9843 20.3513 23.1356L20.6487 23.0964ZM20.2494 21.2965C19.7738 20.6623 19.0069 20.389 18.3397 20.1551L18.2405 20.4382C18.923 20.6775 19.5972 20.9269 20.0094 21.4765L20.2494 21.2965ZM18.3397 20.1551C16.3348 19.4523 14.2452 19.7014 12.2203 19.8893L12.248 20.188C14.2924 19.9983 16.3098 19.7615 18.2405 20.4382L18.3397 20.1551ZM12.2203 19.8893C11.4687 19.959 10.7295 20.0433 9.98096 20.1368L10.0182 20.4345C10.7646 20.3412 11.5005 20.2573 12.248 20.188L12.2203 19.8893ZM9.98096 20.1368C9.37501 20.2126 8.81972 20.3443 8.24263 20.3443V20.6443C8.84311 20.6443 9.45562 20.5048 10.0182 20.4345L9.98096 20.1368ZM8.24263 20.3443H6.80963V20.6443H8.24263V20.3443ZM6.80963 20.3443C6.60281 20.3443 6.39635 20.3208 6.17965 20.2959C5.96577 20.2713 5.74176 20.2455 5.51389 20.2455V20.5455C5.72178 20.5455 5.9288 20.5691 6.14544 20.5939C6.35925 20.6185 6.58278 20.6443 6.80963 20.6443V20.3443ZM5.51389 20.2455C5.41238 20.2455 5.31838 20.238 5.22413 20.2302C5.13199 20.2227 5.03619 20.2145 4.94212 20.2158C4.74485 20.2187 4.55075 20.2635 4.34681 20.4266L4.53422 20.6609C4.67625 20.5472 4.80195 20.5179 4.94644 20.5158C5.02325 20.5147 5.10381 20.5214 5.19954 20.5292C5.29315 20.5369 5.39852 20.5455 5.51389 20.5455V20.2455ZM4.34681 20.4266C4.23676 20.5146 4.17791 20.6472 4.14031 20.7581C4.12073 20.8158 4.10483 20.8744 4.091 20.927C4.07665 20.9816 4.0651 21.0275 4.05269 21.0683L4.33969 21.1557C4.35431 21.1076 4.36806 21.0531 4.38115 21.0033C4.39475 20.9515 4.40843 20.9016 4.42441 20.8544C4.45795 20.7556 4.49424 20.6928 4.53422 20.6609L4.34681 20.4266ZM4.05269 21.0683C3.98216 21.3 3.98391 21.5377 3.99984 21.7597C4.01651 21.992 4.04618 22.1911 4.04618 22.3968H4.34618C4.34618 22.1786 4.31356 21.9401 4.29908 21.7382C4.28386 21.5262 4.28561 21.3334 4.33969 21.1557L4.05269 21.0683ZM20.446 23.256C20.5208 23.2848 20.5981 23.2815 20.6689 23.25C20.7347 23.2207 20.7878 23.1706 20.8307 23.1164C20.9158 23.0089 20.9898 22.8485 21.0569 22.6574C21.1928 22.2709 21.3194 21.7026 21.4395 21.0222C21.6801 19.6585 21.8996 17.811 22.1085 15.987C22.3177 14.1599 22.5163 12.3567 22.7154 11.073C22.8152 10.4293 22.9139 9.92563 23.0116 9.61656C23.0625 9.45572 23.1058 9.37288 23.1327 9.34349C23.1443 9.33086 23.1314 9.35161 23.0955 9.35049C23.0603 9.34938 23.0503 9.32865 23.0639 9.34499L23.2944 9.15294C23.255 9.10573 23.1924 9.05338 23.1049 9.05063C23.0167 9.04786 22.9518 9.09695 22.9117 9.14066C22.8353 9.22396 22.7763 9.36585 22.7256 9.5261C22.6202 9.85922 22.5188 10.3832 22.4189 11.027C22.2186 12.3183 22.0192 14.1298 21.8104 15.9528C21.6013 17.7789 21.3828 19.617 21.1441 20.97C21.0244 21.648 20.9011 22.1959 20.7739 22.5579C20.7096 22.741 20.6488 22.8629 20.5955 22.9301C20.5692 22.9633 20.5522 22.9735 20.547 22.9759C20.5453 22.9766 20.5465 22.9758 20.5497 22.9757C20.5531 22.9756 20.5548 22.9764 20.554 22.976L20.446 23.256ZM23.0639 9.34499C23.257 9.57669 23.4623 9.80089 23.6616 10.0221C23.862 10.2446 24.0572 10.465 24.2357 10.6944L24.4725 10.5103C24.2868 10.2715 24.0853 10.0441 23.8845 9.82134C23.6828 9.59737 23.4827 9.37895 23.2944 9.15294L23.0639 9.34499ZM24.2357 10.6944C24.3076 10.7869 24.3731 10.9106 24.4582 11.0539C24.537 11.1865 24.6334 11.3369 24.7573 11.436L24.9447 11.2017C24.8685 11.1408 24.7961 11.0353 24.7162 10.9007C24.6427 10.777 24.5597 10.6225 24.4725 10.5103L24.2357 10.6944ZM24.7573 11.436C24.7822 11.4559 24.8124 11.477 24.8462 11.4901C24.8792 11.5029 24.9433 11.5181 25.0074 11.4796C25.0674 11.4437 25.085 11.3852 25.0908 11.3588C25.0973 11.3289 25.0975 11.2994 25.0967 11.278C25.0952 11.2354 25.0876 11.1824 25.0828 11.1438C25.0773 11.099 25.0741 11.0644 25.075 11.0387L24.7752 11.028C24.7733 11.0805 24.7797 11.1369 24.7851 11.1806C24.7913 11.2304 24.796 11.2633 24.7969 11.2888C24.7973 11.3014 24.7963 11.3015 24.7977 11.2948C24.7984 11.2915 24.8072 11.2499 24.8531 11.2224C24.9031 11.1924 24.9478 11.2077 24.9548 11.2104C24.9627 11.2135 24.9603 11.2143 24.9447 11.2017L24.7573 11.436ZM25.075 11.0387C25.0868 10.7093 25.1221 10.3754 25.1604 10.0358C25.1985 9.69801 25.2397 9.35359 25.2615 9.0114L24.9621 8.99239C24.9409 9.32543 24.9008 9.66098 24.8623 10.0022C24.824 10.3417 24.7874 10.6859 24.7752 11.028L25.075 11.0387ZM25.2615 9.0114C25.3439 7.71326 25.3587 6.47693 25.6531 5.2259L25.3611 5.15719C25.0592 6.44022 25.0432 7.71455 24.9621 8.99239L25.2615 9.0114ZM25.6531 5.2259C25.8539 4.37229 26.0195 3.54669 26.2918 2.72985L26.0071 2.63498C25.7292 3.46885 25.5589 4.31635 25.3611 5.15719L25.6531 5.2259ZM26.2918 2.72985C26.3905 2.43352 26.4693 2.12225 26.5527 1.82452C26.637 1.5234 26.7273 1.23063 26.8518 0.954094L26.5782 0.830985C26.4442 1.12877 26.349 1.43925 26.2638 1.74363C26.1776 2.0514 26.1028 2.3479 26.0071 2.63498L26.2918 2.72985ZM26.8518 0.954094C26.8805 0.890172 26.9055 0.831165 26.9181 0.780169C26.9313 0.726562 26.9378 0.653332 26.8933 0.583591C26.856 0.525069 26.7966 0.49449 26.7621 0.477395C26.7418 0.467335 26.7187 0.456914 26.6964 0.446774C26.6733 0.436246 26.6486 0.424975 26.6213 0.411716L26.4902 0.681569C26.5212 0.696635 26.5489 0.709265 26.5723 0.719895C26.5966 0.730914 26.6142 0.73891 26.6289 0.746208C26.6438 0.753573 26.6502 0.757599 26.6525 0.759224C26.6543 0.760533 26.6476 0.756168 26.6404 0.744909C26.6212 0.714871 26.6312 0.690567 26.6267 0.708569C26.6217 0.729183 26.6081 0.764469 26.5782 0.830985L26.8518 0.954094ZM26.6213 0.411716C26.0717 0.14477 25.4431 0.0568138 24.8553 0.0507536L24.8522 0.350738C25.4164 0.356554 25.9957 0.441387 26.4902 0.681569L26.6213 0.411716ZM24.8553 0.0507536C22.1998 0.0233781 19.4774 -0.0729934 16.8157 0.172167L16.8432 0.470903C19.4852 0.22756 22.1858 0.323249 24.8522 0.350738L24.8553 0.0507536ZM16.8157 0.172167C14.4224 0.392598 12.0459 0.742539 9.65896 0.742539V1.04254C12.0642 1.04254 14.4718 0.689322 16.8432 0.470903L16.8157 0.172167ZM9.65896 0.742539C7.83937 0.742539 6.04515 0.793602 4.23017 1.01265L4.26612 1.31049C6.06376 1.09353 7.84432 1.04254 9.65896 1.04254V0.742539ZM4.23017 1.01265C3.32997 1.1213 2.38247 1.13646 1.47282 1.08592L1.45618 1.38546C2.37982 1.43677 3.34527 1.42163 4.26612 1.31049L4.23017 1.01265ZM1.47282 1.08592C1.47313 1.08594 1.46505 1.08508 1.44146 1.08106C1.42047 1.07747 1.39477 1.07275 1.36346 1.06713C1.30237 1.05615 1.2246 1.04257 1.14672 1.03289C1.07059 1.02343 0.985961 1.01656 0.913152 1.022C0.877129 1.02469 0.83522 1.03094 0.795861 1.04651C0.757059 1.06185 0.702759 1.09375 0.67407 1.1583L0.948214 1.28014C0.940653 1.29715 0.930002 1.30888 0.921297 1.31601C0.913157 1.32268 0.907002 1.32516 0.906189 1.32548C0.905752 1.32566 0.913905 1.32278 0.935502 1.32117C0.977934 1.318 1.03878 1.32179 1.10973 1.3306C1.17893 1.3392 1.24984 1.35151 1.31039 1.36239C1.36249 1.37176 1.42462 1.38371 1.45618 1.38546L1.47282 1.08592ZM0.67407 1.1583C0.625895 1.26669 0.612238 1.37989 0.608827 1.48087C0.605713 1.57306 0.611728 1.68891 0.611728 1.76003H0.911728C0.911728 1.65514 0.905525 1.58367 0.908656 1.491C0.911489 1.40711 0.922539 1.33791 0.948214 1.28014L0.67407 1.1583ZM0.611728 1.76003C0.611728 1.94953 0.592243 2.13902 0.569682 2.33592C0.547398 2.53041 0.521849 2.73395 0.513038 2.93954L0.812763 2.95238C0.821001 2.76016 0.844865 2.56965 0.867732 2.37007C0.890324 2.1729 0.911728 1.96833 0.911728 1.76003H0.611728ZM0.513038 2.93954C0.468077 3.98863 0.286065 5.05208 0.15712 6.11229L0.454926 6.14851C0.581465 5.10808 0.767138 4.01697 0.812763 2.95238L0.513038 2.93954ZM0.15712 6.11229C0.135977 6.28613 0.102946 6.46124 0.0730673 6.65038C0.043859 6.83528 0.0187622 7.02793 0.0187622 7.21751H0.318762C0.318762 7.05226 0.340746 6.87854 0.369393 6.69719C0.39737 6.52008 0.432968 6.32905 0.454926 6.14851L0.15712 6.11229ZM0.0187622 7.21751C0.0187622 7.31288 0.0475541 7.39848 0.112767 7.46291C0.17328 7.5227 0.249224 7.54801 0.310497 7.56106C0.371823 7.57413 0.438569 7.57866 0.490906 7.58266C0.548478 7.58707 0.592272 7.59102 0.62833 7.59956L0.69747 7.30763C0.634756 7.29278 0.567396 7.28764 0.513797 7.28354C0.454963 7.27904 0.410521 7.27564 0.373006 7.26765C0.335437 7.25965 0.324887 7.25076 0.323616 7.24951C0.323435 7.24933 0.323437 7.24931 0.323435 7.24931C0.323431 7.2493 0.323046 7.24872 0.322475 7.24719C0.321331 7.24411 0.318762 7.2353 0.318762 7.21751H0.0187622ZM0.62833 7.59956C0.928451 7.67064 1.22933 7.70625 1.52168 7.73871C1.81664 7.77145 2.10178 7.80089 2.38432 7.85861L2.44437 7.56468C2.14554 7.50363 1.84512 7.47277 1.55478 7.44054C1.26183 7.40802 0.97767 7.374 0.69747 7.30763L0.62833 7.59956ZM2.38432 7.85861C2.8962 7.96319 3.45015 8.11119 3.9367 8.29654L4.0435 8.0162C3.53777 7.82354 2.96736 7.67153 2.44437 7.56468L2.38432 7.85861ZM4.0349 8.01322C3.92101 7.97758 3.84902 7.9402 3.8065 7.90873C3.76307 7.87658 3.76051 7.85852 3.76154 7.863C3.76387 7.87309 3.75849 7.88188 3.7589 7.88141C3.76207 7.87775 3.77586 7.86597 3.80649 7.85808C3.86615 7.84273 3.95989 7.85086 4.04925 7.91923C4.13676 7.98619 4.23176 8.12085 4.27 8.37624L4.5667 8.33181C4.51984 8.01895 4.39499 7.80603 4.23155 7.68098C4.06995 7.55733 3.88163 7.52898 3.73173 7.56755C3.65759 7.58663 3.58473 7.6244 3.53234 7.68476C3.47719 7.7483 3.44733 7.83556 3.46922 7.93044C3.48981 8.0197 3.55084 8.09273 3.62801 8.14985C3.70608 8.20764 3.81167 8.25771 3.9453 8.29952L4.0349 8.01322ZM4.32173 8.46876C4.28979 8.44187 4.27992 8.40963 4.27985 8.40944C4.27838 8.40534 4.27754 8.40224 4.27714 8.40072C4.27672 8.39908 4.27652 8.39811 4.2765 8.398C4.27649 8.39791 4.27677 8.39939 4.27725 8.40298C4.2777 8.40643 4.27822 8.41103 4.27878 8.41695C4.2811 8.44144 4.28324 8.47945 4.28501 8.53189C4.28851 8.63599 4.29025 8.78744 4.29039 8.9806C4.29068 9.36644 4.28458 9.91309 4.27409 10.5677C4.25312 11.8768 4.21462 13.6145 4.17465 15.3542C4.1347 17.0937 4.09328 18.8352 4.06651 20.151C4.05313 20.8089 4.04339 21.3609 4.03933 21.7533C4.0373 21.9493 4.03668 22.1063 4.03775 22.2171C4.03829 22.2723 4.03926 22.3173 4.04078 22.3505C4.04153 22.3669 4.04249 22.3823 4.04386 22.3954C4.04453 22.4019 4.04551 22.4099 4.04704 22.4181C4.04778 22.4221 4.05125 22.4423 4.06202 22.4638L4.33035 22.3297C4.33617 22.3413 4.33892 22.3508 4.3399 22.3544C4.34113 22.3588 4.34177 22.3621 4.34202 22.3634C4.34251 22.3661 4.3425 22.3668 4.34224 22.3643C4.34176 22.3597 4.34111 22.3509 4.34046 22.3368C4.33919 22.3091 4.33826 22.2682 4.33774 22.2142C4.33669 22.1065 4.33729 21.9519 4.33931 21.7564C4.34336 21.3656 4.35307 20.8148 4.36645 20.1571C4.39321 18.8419 4.43461 17.1011 4.47457 15.3611C4.51453 13.6215 4.55306 11.8828 4.57406 10.5725C4.58455 9.91755 4.59068 9.36884 4.59039 8.98038C4.59025 8.7864 4.58851 8.63096 4.58484 8.52179C4.58301 8.4676 4.58064 8.42237 4.57745 8.3887C4.5759 8.37234 4.57384 8.35503 4.57073 8.33942C4.56923 8.33191 4.5667 8.32062 4.56231 8.30836C4.56049 8.30327 4.5488 8.26777 4.51497 8.23929L4.32173 8.46876ZM16.1357 10.8393C16.1392 10.3988 16.2317 10.049 16.3667 9.80698C16.5027 9.5632 16.6723 9.44292 16.8284 9.42053C16.9792 9.39889 17.1633 9.46242 17.3479 9.68823C17.534 9.91571 17.7089 10.2968 17.8238 10.8678L18.1179 10.8086C17.9975 10.2105 17.8083 9.77725 17.5802 9.49831C17.3507 9.2177 17.0706 9.0827 16.7858 9.12357C16.5063 9.16367 16.2687 9.36692 16.1047 9.66081C15.9398 9.95649 15.8395 10.3585 15.8358 10.837L16.1357 10.8393ZM7.8279 9.88586C7.95074 9.97195 7.95072 9.97198 7.9507 9.97201C7.9507 9.972 7.95069 9.97202 7.95069 9.97201C7.9507 9.972 7.95074 9.97195 7.9508 9.97187C7.95092 9.9717 7.95113 9.97139 7.95145 9.97094C7.95208 9.97005 7.95311 9.96861 7.95452 9.96665C7.95733 9.96274 7.96167 9.95675 7.96745 9.94893C7.97901 9.93328 7.99631 9.91032 8.01864 9.88193C8.06337 9.82505 8.12792 9.74686 8.20678 9.66214C8.3672 9.4898 8.57581 9.30252 8.78924 9.20416C8.89458 9.15561 8.99386 9.13213 9.08482 9.1371C9.17293 9.14191 9.26203 9.17374 9.35103 9.25142C9.53705 9.41379 9.72833 9.78238 9.85204 10.5247L10.148 10.4753C10.0217 9.71762 9.81643 9.25944 9.54831 9.02541C9.41024 8.90489 9.25787 8.84611 9.10119 8.83755C8.94738 8.82914 8.79859 8.86952 8.66367 8.9317C8.39657 9.0548 8.15591 9.27649 7.98719 9.45774C7.90147 9.54983 7.83149 9.6346 7.78282 9.69647C7.75845 9.72746 7.73933 9.75283 7.72616 9.77066C7.71957 9.77958 7.71446 9.78663 7.71092 9.79156C7.70915 9.79402 7.70777 9.79596 7.70679 9.79734C7.7063 9.79802 7.70591 9.79857 7.70562 9.79898C7.70548 9.79919 7.70536 9.79935 7.70527 9.79948C7.70522 9.79955 7.70517 9.79962 7.70515 9.79965C7.70511 9.79972 7.70507 9.79977 7.8279 9.88586Z" fill="black"/>
</svg>
